<svg height="512" viewBox="0 0 44 59" width="512" xmlns="http://www.w3.org/2000/svg"><g id="Page-1" fill="none" fill-rule="evenodd"><g id="030---Coconut-with-Face"><path id="Path" d="m44 36.09c0 12.1502645-9.8497355 22-22 22s-22-9.8497355-22-22c0-11.9 9.51-25.61 21.37-26.08.21-.01.42-.01.63-.01 1.6665197.0027149 3.3226524.2624343 4.91.77 9.79 3.08 17.09 14.89 17.09 25.32z" fill="#cb8252"/><path id="Path" d="m28.043 52c-.4372742-.0002131-.8236989-.2845099-.9540486-.7019039s.0256091-.8710739.3850486-1.1200961c4.991-3.453 7.526-6.733 7.526-15.078-.0129508-1.5815968-.1672312-3.1588713-.461-4.713-.0855144-.5367372.2733246-1.0435038.8079992-1.141088s1.0493963.2497475 1.1590008.782088c.3156902 1.6725378.4810167 3.3699793.494 5.072 0 9.134-3.076 13.049-8.39 16.723-.1664281.1156443-.3643384.1774258-.567.177z" fill="#a56a43"/><circle id="Oval" cx="11.5" cy="30.5" fill="#3f5c6c" r="2.5"/><circle id="Oval" cx="26.5" cy="30.5" fill="#3f5c6c" r="2.5"/><path id="Path" d="m19 46c-3.8161089.1048233-7.3274933-2.0746974-8.927-5.541-.20903975-.5114157.0360844-1.0954602.5475-1.3045.5114157-.2090397 1.0954602.0360843 1.3045.5475 1.295132 2.7109187 4.0722601 4.3979994 7.075 4.298 2.9989273.08533 5.7683998-1.598359 7.073-4.3.2082114-.511968.792032-.7582114 1.304-.55s.7582114.792032.55 1.304c-1.5980118 3.4682561-5.1097185 5.6499437-8.927 5.546z" fill="#805333"/><path id="Path" d="m12.332 21.539c-.3464401-.000185-.6681037-.1796678-.8501945-.4743943-.1820909-.2947265-.1986643-.6627032-.0438055-.9726057.6697532-1.4164631 1.5459595-2.7257176 2.6-3.885.3918367-.379565 1.0155809-.3750451 1.4018758.0101585.3862949.3852037.3925793 1.0089326.0141242 1.4018415-.8991704 1.0109585-1.650019 2.144639-2.23 3.367-.1689407.3380862-.5140551.5520417-.892.553z" fill="#a56a43"/><path id="Path" d="m18.96 2.211c3 2.726 3.04 7.735 3.04 7.735s-4.832.589-7.836-2.137-3.04-7.735-3.04-7.735 4.832-.589 7.836 2.137z" fill="#4fba6f"/><path id="Path" d="m25.04 2.211c-3 2.726-3.04 7.735-3.04 7.735s4.832.589 7.836-2.137 3.04-7.735 3.04-7.735-4.832-.589-7.836 2.137z" fill="#4fba6f"/><path id="Path" d="m33.29 23.95c-.1037029.0319869-.2114823.0488274-.32.05-.4269344-.0010237-.8054284-.2748278-.94-.68-2.03-5.95-4.92-10.29-8.14-12.34.6848622 1.9045545 1.0596276 3.9066793 1.11 5.93 0 .5522847-.4477153 1-1 1s-1-.4477153-1-1c-.1002653-2.3826365-.653457-4.7243682-1.63-6.9.21-.01.42-.01.63-.01 1.6665197.0027149 3.3226524.2624343 4.91.77 3.62 3.32 5.86 8.53 7.01 11.91.0855507.2519365.0671743.5275791-.0510626.7659296-.1182368.2383504-.3265848.4197553-.5789374.5040704z" fill="#a56a43"/></g></g></svg>