<svg height="512" viewBox="0 0 58 58" width="512" xmlns="http://www.w3.org/2000/svg"><g id="Page-1" fill="none" fill-rule="evenodd"><g id="037---Island"><path id="Path" d="m58 53.44v3.56c0 .5522847-.4477153 1-1 1h-56c-.55228475 0-1-.4477153-1-1v-3.56c.00157151-.2799248.11711887-.547128.32-.74l2.87-2.66c1.47681225-1.3534352 3.74318775-1.3534352 5.22 0l.58.54c1.4742031 1.3601273 3.7457969 1.3601273 5.22 0l.58-.54c1.4742031-1.3601273 3.7457969-1.3601273 5.22 0l.58.54c1.4742031 1.3601273 3.7457969 1.3601273 5.22 0l.58-.54c1.4742031-1.3601273 3.7457969-1.3601273 5.22 0l.58.54c1.4742031 1.3601273 3.7457969 1.3601273 5.22 0l.58-.54c1.4742031-1.3601273 3.7457969-1.3601273 5.22 0l.58.54c1.4742031 1.3601273 3.7457969 1.3601273 5.22 0l.58-.54c1.4768123-1.3534352 3.7431877-1.3534352 5.22 0l2.87 2.66c.2028811.192872.3184285.4600752.32.74z" fill="#2fa8cc"/><path id="Path" d="m44.68 30.63c-1.4744349 1.8333474-2.5936105 3.9258666-3.3 6.17-.11.32-.22.65-.33.99-.1.31-.19.63-.28.97-.25.88-.49 1.85-.72 2.9l-5.78-1.3c.5731966-1.4301074 1.2551952-2.8141633 2.04-4.14.2-.35.41-.68.62-1 .25-.38.49-.74.75-1.08 1.5252415-2.1877685 3.4569875-4.0617998 5.69-5.52z" fill="#cb8252"/><path id="Path" d="m41.38 36.8c-.11.32-.22.65-.33.99-.1.31-.19.63-.28.97-1.8147957-.0585606-3.4837462-1.0090391-4.46-2.54.2-.35.41-.68.62-1 .25-.38.49-.74.75-1.08.0678241.573549.3124707 1.1117715.7 1.54.8192173.7444877 1.8933251 1.145488 3 1.12z" fill="#a56a43"/><path id="Path" d="m29.89 40.01-7.91.64c-.3597312-2.8493862-.9347082-5.6674423-1.72-8.43-.09-.33-.19-.66-.29-.97-.11-.34-.22-.67-.33-.98-1.57-4.53-3.35-6.83-4.4-7.86l1.99-1.82c2.7132055 1.7086779 5.0478166 3.9548052 6.86 6.6.25.34.49.7.74 1.07.21.32.42.65.62.99 1.999803 3.3494507 3.4958286 6.9749542 4.44 10.76z" fill="#cb8252"/><path id="Path" d="m25.45 29.25c-.259801.4793289-.597777.9119382-1 1.28-1.1664823 1.0191342-2.6428629 1.6146195-4.19 1.69-.09-.33-.19-.66-.29-.97-.11-.34-.22-.67-.33-.98 1.2538257.0089269 2.4723544-.4149092 3.45-1.2.5324643-.4985302.8842193-1.1598296 1-1.88.25.34.49.7.74 1.07.21.32.42.65.62.99z" fill="#a56a43"/><circle id="Oval" cx="51" cy="7" fill="#f0c419" r="7"/><path id="Path" d="m51.76 49.05c-.810213.0908201-1.5703621.4376163-2.17.99l-.58.54c-1.4742031 1.3601273-3.7457969 1.3601273-5.22 0l-.58-.54c-1.4742031-1.3601273-3.7457969-1.3601273-5.22 0l-.58.54c-1.4742031 1.3601273-3.7457969 1.3601273-5.22 0l-.58-.54c-1.4742031-1.3601273-3.7457969-1.3601273-5.22 0l-.58.54c-1.4742031 1.3601273-3.7457969 1.3601273-5.22 0l-.58-.54c-1.4742031-1.3601273-3.7457969-1.3601273-5.22 0l-.58.54c-1.4742031 1.3601273-3.7457969 1.3601273-5.22 0l-.58-.54c-.59963786-.5523837-1.35978703-.8991799-2.17-.99 4.42-5.39 12.96-9.05 22.76-9.05s18.34 3.66 22.76 9.05z" fill="#f0c419"/><path id="Path" d="m43.74 29.818v.016c.0039006-.0095683.0089367-.0186332.015-.027.26329-.4047962.490178-.8321354.678-1.277.0020812-.0052072.0059931-.0094747.011-.012 1.0492179-2.3166286 1.0125661-4.9801194-.1-7.267-1.3577924-2.6368904-4.0872233-4.2819791-7.053-4.251l4.608 9.17z" fill="#4c8056"/><path id="Path" d="m48.166 29.252h.007l9.827-1.301c-1.6430435-2.469389-4.5391155-3.7999644-7.483-3.438-3.0124114.4980517-5.5640692 2.4953618-6.771 5.3z" fill="#24ae5f"/><path id="Path" d="m43.743 29.834c-.6245722-2.9075395-2.8141034-5.2265695-5.681-6.017-4.81-1.206-8.062 2.571-8.062 2.571z" fill="#4fba6f"/><path id="Path" d="m54.527 39s1.2-4.831-2.573-8.039c-2.3160559-1.8699166-5.4773384-2.3030481-8.211-1.125z" fill="#4fba6f"/><path id="Path" d="m16.794 21.938c-.117-.252-2.25-5.416-7.974-6.172-3.46069518-.4302807-6.86969547 1.1200028-8.82 4.011l11.581 1.523h.009z" fill="#4c8056"/><path id="Path" d="m18.976 17.7 5.431-10.7c-3.4820444-.04001422-6.6928511 1.87457364-8.313 4.957-1.3117533 2.664509-1.3554514 5.7777236-.119 8.478.0056534.003683.010158.0088805.013.015.222093.5193406.4898084 1.0179606.8 1.49.007021.0095307.0127382.0199562.017.031v-.019z" fill="#24ae5f"/><g fill="#4fba6f"><path id="Path" d="m16.8 21.973c.7458191-3.4082858 3.3301918-6.1160913 6.7-7.02 5.669-1.407 9.5 3 9.5 3z"/><path id="Path" d="m4.094 32.665s-1.417-5.637 3.032-9.379 9.674-1.313 9.674-1.313z"/></g></g></g></svg>