<svg height="512" viewBox="0 0 58 58" width="512" xmlns="http://www.w3.org/2000/svg"><g id="Page-1" fill="none" fill-rule="evenodd"><g id="025---Rocky-Island"><path id="Path" d="m10.725 50.506 12.665-34.826c.3867275-1.0690376 1.213197-1.9209929 2.27-2.34l1.93-.78c.909851-.3599661 1.6543194-1.0438797 2.09-1.92l4.21-8.43c.6818253-1.3521607 2.0656647-2.20643025 3.58-2.21h1.14c1.9562593-.00235986 3.6272184 1.41055238 3.95 3.34l3.18 19.08c.1704288 1.0121521.721372 1.9208506 1.54 2.54l1.39 1.05c.8502222.63328 1.411918 1.5802414 1.56 2.63l3.428 23.96z" fill="#cbb292"/><path id="Path" d="m34 58h23c.5522847 0 1-.4477153 1-1v-5.509c-.0001953-.3096756-.1438513-.6017883-.389-.791l-2.551-1.97c-1.2020109-.9701192-2.9179891-.9701192-4.12 0l-.88.68c-1.2131901.937934-2.9068099.937934-4.12 0l-.88-.68c-1.2123274-.9350088-2.9026726-.9350088-4.115 0l-1.135.87z" fill="#67b9cc"/><path id="Path" d="m37 34c-.3808256.0020788-.7297741-.2123306-.9-.553l-1.447-2.894c-.1673779-.3381037-.5117348-.55231-.889-.553h-1.935c-.7964142.0025349-1.5606602-.3140402-2.122-.879l-1.414-1.414c-.3789722-.3923789-.3735524-1.0160848.0121814-1.4018186s1.0094397-.3911536 1.4018186-.0121814l1.414 1.414c.1877377.1877946.4424587.2932088.708.293h1.935c1.1372699-.0039706 2.1778471.6390696 2.683 1.658l1.453 2.895c.1553431.3108588.1381628.6800764-.0453763.9751664-.183539.2950901-.5071168.4737357-.8546237.4718336z" fill="#a59078"/><path id="Path" d="m39 16c-.4583065-.0004704-.8576317-.3124303-.969-.757l-1-4c-.0897157-.3475751.0137487-.7165715.2710941-.9668327.2573454-.2502613.6290855-.34338792.9740215-.2440075.3449361.0993804.6101421.3760192.6948844.7248402l1 4c.1341901.535714-.1912929 1.0787826-.727 1.213-.0797438.0202442-.1617273.0303241-.244.03z" fill="#a59078"/><path id="Path" d="m18.31 58h20.43c.5812435.0003304 1.1338775-.2522175 1.5140398-.6919001.3801622-.4396827.5502406-1.0229991.4659602-1.5980999l-1.15-7.72c-.1668272-1.1329662-.717515-2.1743309-1.56-2.95l-5.14-4.72c-.9207814-.8490748-2.127496-1.3203361-3.38-1.32h-3.68c-.8976433-.0014216-1.7788873.2404886-2.55.7l-3.93 2.32c-.6683108.3952032-1.2363879.9393253-1.66 1.59l-2.32 3.6z" fill="#7f8c8d"/><path id="Path" d="m.141 55.267.912-2.314c.43747671-1.1113529 1.25832355-2.029396 2.314-2.588l5.267-2.785c.72042006-.3809807 1.5230452-.5800922 2.338-.58h2.954c1.8020296-.0000558 3.4646806.9695693 4.352 2.538l4.786 8.462h-21.064c-.66146042-.0006071-1.27983705-.3282202-1.65185966-.8751474-.37202261-.5469273-.44956597-1.2424177-.20714034-1.8578526z" fill="#95a5a5"/></g></g></svg>