<svg height="512" viewBox="0 0 58 58" width="512" xmlns="http://www.w3.org/2000/svg"><g id="Page-1" fill="none" fill-rule="evenodd"><g id="026---Island"><path id="Path" d="m33.63 27.29c.0026939 4.8421583.5053594 9.6710978 1.5 14.41l-9.75 2.54c-.8305985-6.3066186-.3713102-12.7162411 1.35-18.84.11-.39.23-.76.35-1.13.13-.41.27-.8.42-1.18 1.2162945-3.4702471 3.1441406-6.6481277 5.66-9.33l3.2 1.12c-.87 1.38-2.3 4.52-2.66 10.36-.02.33-.04.68-.05 1.03-.01.33-.02.67-.02 1.02z" fill="#cb8252"/><path id="Path" d="m38.01 50.02-.02.02-.58.54c-1.4742031 1.3601273-3.7457969 1.3601273-5.22 0l-.58-.54c-1.4742031-1.3601273-3.7457969-1.3601273-5.22 0l-.58.54c-1.4742031 1.3601273-3.7457969 1.3601273-5.22 0l-.58-.54c-1.4742031-1.3601273-3.7457969-1.3601273-5.22 0l-.58.54c-1.4742031 1.3601273-3.7457969 1.3601273-5.22 0l-.58-.54c-.81878893-.7535371-1.92425306-1.1147283-3.03-.99l3.13-7.84c.3219706-.7847954.88144457-1.4491708 1.6-1.9l5.92-3.7c.6346902-.3998833 1.3698425-.6114129 2.12-.61h5.48c.8870479.0015969 1.7485827.2969803 2.45.84l6.07 4.72 1.13.88c.4737577.3670573.8597773.8350634 1.13 1.37z" fill="#95a5a5"/><path id="Path" d="m58 53.44v3.56c0 .5522847-.4477153 1-1 1h-56c-.55228475 0-1-.4477153-1-1v-3.56c.00157151-.2799248.11711887-.547128.32-.74l2.87-2.66c.60090549-.5623959 1.3708254-.9104419 2.19-.99 1.10574694-.1247283 2.21121107.2364629 3.03.99l.58.54c1.4742031 1.3601273 3.7457969 1.3601273 5.22 0l.58-.54c1.4742031-1.3601273 3.7457969-1.3601273 5.22 0l.58.54c1.4742031 1.3601273 3.7457969 1.3601273 5.22 0l.58-.54c1.4742031-1.3601273 3.7457969-1.3601273 5.22 0l.58.54c1.4742031 1.3601273 3.7457969 1.3601273 5.22 0l.58-.54.02-.02c1.4775739-1.3393771 3.7327726-1.3307033 5.2.02l.58.54c1.4742031 1.3601273 3.7457969 1.3601273 5.22 0l.58-.54c.266856-.2510704.5703211-.4601242.9-.62 1.4299451-.7047642 3.1459836-.4584809 4.32.62l2.87 2.66c.2028811.192872.3184285.4600752.32.74z" fill="#2fa8cc"/><path id="Path" d="m21.528 43h-5.528c-.5522847 0-1-.4477153-1-1s.4477153-1 1-1h5.528c.1546694.0011264.3075544-.0330761.447-.1l1.578-.79c.4942949-.2468713 1.0951287-.0462949 1.342.448s.0462949 1.0951287-.448 1.342l-1.578.789c-.4170241.2057251-.8759941.3121678-1.341.311z" fill="#7f8c8d"/><path id="Path" d="m33.7 25.24c-.02.33-.04.68-.05 1.03-.01.33-.02.67-.02 1.02-.5600951.0769902-1.1246457.1170766-1.69.12-1.9424338.0948421-3.8345728-.6351386-5.21-2.01.11-.39.23-.76.35-1.13.13-.41.27-.8.42-1.18.3415397.6272133.837094 1.1571812 1.44 1.54 1.4553763.7888915 3.152726 1.006409 4.76.61z" fill="#a56a43"/><path id="Path" d="m50.49 49.42c-.3296789.1598758-.633144.3689296-.9.62l-.58.54c-1.4742031 1.3601273-3.7457969 1.3601273-5.22 0l-.58-.54c-1.4672274-1.3507033-3.7224261-1.3593771-5.2-.02l-3.6-7.21c-.2702227-.5349366-.6562423-1.0029427-1.13-1.37l-1.13-.88 2.84-1.89c.65743-.4380214 1.4300155-.6711891 2.22-.67h5.39c.9092734-.0001714 1.7913184.3103084 2.5.88l2.76 2.21c.7356237.5887905 1.2416193 1.4167833 1.43 2.34z" fill="#7f8c8d"/><path id="Path" d="m34.3 14.98.01.02c.0015718-.0137129.0049338-.0271607.01-.04.2050655-.6149622.3523692-1.2476985.44-1.89.0007292-.0076786.0042946-.0148095.01-.02.5404282-3.42806009-.5210235-6.91463396-2.88-9.46-2.8823913-3.00997758-7.1557833-4.24620885-11.2-3.24l9.73 10.47z" fill="#4c8056"/><path id="Path" d="m40.11 12.79h.01l12.88-4.92c-3.1551491-2.7425143-7.562878-3.52764768-11.4709469-2.04327978s-6.6831539 4.99768718-7.2220531 9.14327978z" fill="#24ae5f"/><g fill="#4fba6f"><path id="Path" d="m34.31 15c-2.0137285-3.6509279-5.8309561-5.94126444-10-6-4.1690439.05873556-7.9862715 2.3490721-10 6z"/><path id="Path" d="m52.442 23.439c-.2272929-4.1793285-2.7395908-7.8931355-6.5342349-9.6592398-3.7946442-1.7661042-8.25378-1.2969436-11.5977651 1.2202398z"/></g></g></g></svg>