<svg id="filled_outline" height="512" viewBox="0 0 512 512" width="512" xmlns="http://www.w3.org/2000/svg" data-name="filled outline"><path d="m120 120-96 80v256h464v-256l-96-80z" fill="#ffece3"/><path d="m488 200-64 72h-336l-64-72 96-80h272z" fill="#ffd9c7"/><path d="m408 320h32v32h-32z" fill="#ffc431"/><path d="m276.46129 272 99.61327-114.55526a61.56727 61.56727 0 0 0 -5.04437-85.95523l-.00009-.00008a61.56727 61.56727 0 0 0 -84.94926 2.02146l-30.48911 30.48911-30.48912-30.48911a61.56727 61.56727 0 0 0 -84.94926-2.02146l-.00009.00008a61.56727 61.56727 0 0 0 -5.04437 85.95523l99.61328 114.55526z" fill="#fb6a83"/><path d="m493.12109 193.85449-93.9685-78.30713c-.01929-.85815-.03858-1.71631-.08911-2.57763a69.5672 69.5672 0 0 0 -118.63965-45.11621l-24.832 24.833-24.832-24.833a69.5672 69.5672 0 0 0 -118.63965 45.11621c-.06421 1.09521-.09986 2.188-.11328 3.27807l-93.12799 77.60669a7.99862 7.99862 0 0 0 -2.87891 6.14551v256a8.00039 8.00039 0 0 0 8 8h464a8.00039 8.00039 0 0 0 8-8v-256a7.99862 7.99862 0 0 0 -2.87891-6.14551zm-115.1582 45.69629-21.26025 24.44922h-19.14453l44.13134-50.751-12.07422-10.498-53.26023 61.249h-22.336l88.09229-101.30566a69.29765 69.29765 0 0 0 14.84375-28.15186l79.57861 66.31592-56.12642 63.1416h-42.50147l12.13135-13.95117zm-249.87012-125.64355a53.56722 53.56722 0 0 1 91.35254-34.73923l30.48926 30.48926a8.003 8.003 0 0 0 11.31445 0l30.48926-30.48926a53.56679 53.56679 0 0 1 78.29883 73.02734l-97.22119 111.80466h-34.44922l-97.22022-111.80566a53.2696 53.2696 0 0 1 -13.05371-38.28711zm67.55223 150.09277-53.26025-61.249-12.07422 10.498 44.13136 50.751h-18.79689l-21.26025-24.44922-12.07422 10.49805 12.13136 13.95117h-42.84912l-56.12646-63.1416 78.9082-65.75733a69.30642 69.30642 0 0 0 14.69776 27.59229l88.09155 101.30664zm-163.645 184v-226.9585l50.02051 56.273a8.0011 8.0011 0 0 0 5.97949 2.6855h336a8.0011 8.0011 0 0 0 5.97949-2.68555l50.02051-56.27295v226.9585z"/><path d="m352 376h48v16h-48z"/><path d="m416 376h32v16h-32z"/><path d="m328 408h32v16h-32z"/><path d="m376 408h72v16h-72z"/><path d="m440 312h-32a8.00039 8.00039 0 0 0 -8 8v32a8.00039 8.00039 0 0 0 8 8h32a8.00039 8.00039 0 0 0 8-8v-32a8.00039 8.00039 0 0 0 -8-8zm-8 32h-16v-16h16z"/><path d="m384.955 180.411h15.463v16h-15.463z" transform="matrix(.656 -.755 .755 .656 -7.151 361.127)"/><path d="m389.118 221.273h16.766v16.001h-16.766z" transform="matrix(.656 -.755 .755 .656 -36.347 378.772)"/><path d="m106.846 220.891h16.001v16.766h-16.001z" transform="matrix(.755 -.656 .656 .755 -122.265 131.631)"/><path d="m111.314 180.679h16v15.463h-16z" transform="matrix(.755 -.656 .656 .755 -94.351 124.521)"/></svg>